/* XPM */
static char * python16_xpm[] = {
"14 15 7 1",
" 	c None",
".	c #000000",
"+	c #808000",
"@	c #0000FF",
"#	c #FFFF00",
"$	c #00FF00",
"%	c #FF0000",
"        ...   ",
"       .+++.  ",
"     ..+@.@.  ",
"    .++.#.#.. ",
"   .++++.+.++.",
"   .++$++++++.",
"   .++.$$$$$$.",
"   .+$..$.%$..",
"..  .+$...%%. ",
".+. .++$$..%. ",
".+.  .++$$..  ",
".++....++$$.  ",
" .++++.++$$.  ",
" .$++++++$$.  ",
"  .$$$$$$$.   "};
