/* XPM */
static char *python32[]={
"32 32 7 1",
". c None",
"c c #0000ff",
"d c #00ff00",
"a c #808000",
"# c #808080",
"e c #ff0000",
"b c #ffff00",
"...................###.##.......",
"..................#aaa#aa#......",
".................#aa#######.....",
".................#a#bbb#bb#.....",
".................#a#ccb#cb#.....",
".................#a#ccb#cb#.....",
"................##a#bbb#bb#.....",
".............####aaa###a####....",
"...........##aaa#aaaaaaaaaaa##..",
"..........#aaaa#daaaaaaaaaaaaa#.",
".........#aaaa#dddadaaaaaaaaaaa#",
".........#aaaa#dddddadaaaa#aa#a#",
"........#aaaaa#ddd##ddadaaaaaaa#",
"........#aaaaad#dad##dddadadadd#",
"........#aaaaddd#dda###dddddddd#",
"........#aaaadaa##dad###adadad#.",
"........#aaaaddd#.#dda###ee###..",
".........#aaaada#..#ddda##ee#ee.",
".........#aaaaadd#..##dddadeee..",
"..........#aaaaadaa#..##ddddd#..",
"...........#aaaaaddd#...#####...",
"#...........#aaaaaddaa#.........",
"##...........#aaaaaaddd##.......",
"#a#..###...####aaaaaadaaa#......",
"#aa##aaa#.#aaaa#aaaaaaddd#......",
"#aaaaaaaa#aaaaaa#aaaaadddd#.....",
".#aaaaaaaaaaaaaaaaaaaadaaa#.....",
"..#dd##aaaaaaaaaaaaaaadddd#.....",
"...##..#aaaaaaadaaaaaddddd#.....",
"........##ddddd##dddddaaa#......",
"..........#####..##daddd#.......",
"...................#####........"};
